<svg xmlns="http://www.w3.org/2000/svg" xmlns:xlink="http://www.w3.org/1999/xlink" preserveAspectRatio="xMidYMid meet" version="1.0" viewBox="-0.1 -0.0 86.5 92.9" zoomAndPan="magnify" style="fill: rgb(34, 34, 32);" original_string_length="2519" width="26.0755733383952px" height="27.847699681781275px"><g data-name="51" id="__id1_slw940d1eq"><path d="M86.333,10.733a1.028,1.028,0,0,0-1.255-1.256c-9.992,3.01-19.5,7.267-29.11,11.285-1.07-2.21-2.168-4.405-3.349-6.559C49.8,9.059,46.5,3.949,41.939.175A.729.729,0,0,0,41.35.009a.546.546,0,0,0-.526.319.622.622,0,0,0-.13.5c-1.656,9.236-3.646,18.425-5.56,27.627-6.812,2.145-13.668,4.159-20.283,6.881C9.677,37.466,4.557,39.97.294,43.65a1.032,1.032,0,0,0,.453,1.715c10.315,1.46,20.084,4.647,29.643,8.476-.922,6.024-1.651,12.078-2.072,18.178a116.131,116.131,0,0,0,.094,19.937.916.916,0,0,0,1.831,0q.137-1.707.273-3.413a.968.968,0,0,0,.177-.4C32.836,77.6,38.905,68.553,45.8,60.462c5.865,2.625,11.719,5.275,17.638,7.695a155.3,155.3,0,0,0,18.011,6.271,1,1,0,0,0,1.219-1.218c-.809-5.353-3.15-10.378-5.73-15.088-2.871-5.244-6.2-10.221-9.4-15.267q-1.008-1.59-1.965-3.2c3.664-3.807,7.239-7.7,10.536-11.832A64.292,64.292,0,0,0,86.333,10.733Zm-47.92,9.5c1.222-6.036,2.408-12.078,3.467-18.144A47.179,47.179,0,0,1,50.386,13.56c1.447,2.562,2.766,5.19,4.038,7.841-2.972,1.233-5.954,2.44-8.968,3.567-2.839,1.062-5.715,2.019-8.6,2.942Q37.631,24.066,38.413,20.23Zm16.875,3q1.221,2.593,2.424,5.194c1.7,3.66,3.5,7.237,5.5,10.726-.191.2-.383.395-.574.59-5.822,5.987-11.871,11.866-17.363,18.2-4.276-1.91-8.564-3.792-12.9-5.555,1.134-7.43,2.549-14.831,4.029-22.208,2.824-.887,5.641-1.795,8.425-2.8C48.353,26.1,51.828,24.682,55.288,23.228ZM19.91,47.781A112.58,112.58,0,0,0,3.476,43.723a52.792,52.792,0,0,1,11-6.023c5.107-2.175,10.4-3.9,15.687-5.575,1.5-.475,3-.942,4.506-1.411-1.44,6.983-2.808,13.977-3.936,21.008C27.166,50.3,23.567,48.967,19.91,47.781Zm16.953,21.08A57.139,57.139,0,0,0,29.89,83.179a187.577,187.577,0,0,1,2.165-28.668c3.962,1.62,7.891,3.338,11.81,5.085A100.876,100.876,0,0,0,36.863,68.861ZM64.785,41.827c3.043,4.949,6.276,9.782,9.17,14.821,2.758,4.805,5.4,9.928,6.5,15.408C68.994,68.628,58.126,63.692,47.233,58.81q1.1-1.248,2.208-2.471c4.794-5.254,9.886-10.245,14.85-15.352C64.458,41.266,64.614,41.549,64.785,41.827ZM59.95,29.154c-1.042-2.191-2.066-4.391-3.109-6.582,2.143-.908,4.284-1.821,6.427-2.723,6.687-2.813,13.412-5.561,20.325-7.767-4.232,9.839-11.686,18.063-19.085,25.723C62.885,34.984,61.357,32.114,59.95,29.154Z" style="fill: inherit;"/></g></svg>