<svg xmlns="http://www.w3.org/2000/svg" xmlns:xlink="http://www.w3.org/1999/xlink" preserveAspectRatio="xMidYMid meet" version="1.0" viewBox="-0.6 -0.1 70.7 90.6" zoomAndPan="magnify" style="fill: rgb(0, 0, 0);" original_string_length="1710" width="25.098713424167073px" height="32.17783772329112px"><g data-name="53" id="__id0_slw940d1eq"><path d="M69.261,31.3c-6.932.661-13.651,3.515-20.673,2.046a.552.552,0,0,0-.267.01C38.368,30.683,33.007,18.751,29.8,9.62c-.77-2.2-1.49-4.418-2.173-6.648.009-.758.028-1.516.067-2.275A.707.707,0,0,0,26.522.16a.586.586,0,0,0-.77.694q.215.771.43,1.538c-.194,8.269,1.14,16.722-.99,24.813-2.067,7.849-7.5,13.931-13.875,18.7-.1.072-.2.136-.291.207a38.483,38.483,0,0,0-9.087,4.8.63.63,0,0,0-.108.948c-.452.241-.9.491-1.357.724-1.077.549-.129,2.157.947,1.619a70.016,70.016,0,0,0,11.4-7.069A17.939,17.939,0,0,1,16.3,46.6c4.854-.232,8.782,2.3,11.631,6.064A48.188,48.188,0,0,1,35.458,69c0,.423-.009.847,0,1.269A95.486,95.486,0,0,0,36.575,82.9c.12.8,1.354.747,1.6.108a66.159,66.159,0,0,1,.429,6.827.727.727,0,0,0,1.453,0A64.1,64.1,0,0,0,37.24,69.2c-.023-9.195,1.643-18.361,7.458-25.7a33.617,33.617,0,0,1,9.234-7.929.876.876,0,0,0,.421-.725c4.983-.272,9.851-1.82,14.908-2.291C70.056,32.477,70.062,31.225,69.261,31.3ZM38.924,49.835A44.727,44.727,0,0,0,35.63,64.256c-.1-.274-.2-.551-.3-.823-2.906-7.873-7.876-17.812-17.428-18.357a16.017,16.017,0,0,0-2.667.083,46.568,46.568,0,0,0,5.085-5.092A31.134,31.134,0,0,0,26.18,29.89a41.285,41.285,0,0,0,1.827-13.507c-.021-2.921-.2-5.84-.3-8.76a85.841,85.841,0,0,0,4.133,11.091C34.446,24.327,38.059,30.026,43.5,33.27a17.311,17.311,0,0,0,7.084,2.343A33.744,33.744,0,0,0,38.924,49.835Z" style="fill: inherit;"/></g></svg>