<svg xmlns="http://www.w3.org/2000/svg" xmlns:xlink="http://www.w3.org/1999/xlink" preserveAspectRatio="xMidYMid meet" version="1.0" viewBox="-0.4 -0.3 318.8 38.3" zoomAndPan="magnify" style="fill: rgb(34, 34, 32);" original_string_length="1892" width="73.63619028267581px" height="8.836342833921098px"><g data-name="35" id="__id2_slw940d1eq"><path d="M316.3,25.2c-6.792,4.289-14.319,8.485-22.577,8.523-8.058.038-14.455-4.124-20.638-8.786-5.331-4.02-10.736-7.244-17.626-7.062-5.632.149-10.938,2.22-15.927,4.689-10.345,5.118-20.969,12.508-32.958,8.064-6.427-2.382-10.573-8.008-15.307-12.637a29.405,29.405,0,0,0-18.773-8.835,33.505,33.505,0,0,0-19.763,5.034c-5.333,3.277-9.974,7.525-14.97,11.267-4.787,3.585-10.18,7.008-16.294,7.506-5.415.44-9.611-1.872-13-5.968C102.529,19.8,97.908,7.708,86.759,7.97c-5.36.126-10.15,3.278-14.2,6.51-4.736,3.781-8.875,8.226-13.35,12.3-4.248,3.867-9.379,7.546-15.255,8.209-5.565.627-9.81-2.649-12.53-7.254C27.913,21.781,27.184,14.8,24.3,8.59,22.871,5.53,20.693,2.467,17.6.916a9.642,9.642,0,0,0-8.236.02C6.061,2.315,3.217,4.622.293,6.645-.4,7.121.254,8.256.956,7.778,4,5.708,7.013,3.2,10.529,1.977,14.681.531,18.275,2.3,20.823,5.72c4.2,5.625,4.7,13.166,7.425,19.485,2.007,4.655,5.133,9.315,10.145,11.024,5.3,1.806,11.029-.39,15.6-3.077,10-5.876,16.176-16.9,26.9-21.807a13.2,13.2,0,0,1,14.568,1.89c3.918,3.27,6.416,7.84,9.293,11.971,2.716,3.9,5.954,7.705,10.665,9.128,5.335,1.613,11.215.006,16.008-2.481,10.994-5.706,18.926-16.809,31.313-19.861,7.912-1.95,16.4-.931,23.1,3.895,5.374,3.869,9.095,9.563,14.422,13.5a24.09,24.09,0,0,0,17.091,4.476c5.531-.663,10.632-3.035,15.524-5.577,5.153-2.677,10.231-5.678,15.847-7.3,6.359-1.832,12.639-1.343,18.328,2.175,6.142,3.8,11.159,8.92,18.17,11.229,7.138,2.351,14.518,1.34,21.326-1.567a77.062,77.062,0,0,0,10.784-5.863C318.445,26.261,317.418,24.489,316.3,25.2Z" style="fill: inherit;"/></g></svg>